<svg xmlns="http://www.w3.org/2000/svg" width="512" height="512" viewBox="0 0 96 96"><rect width="96" height="96" fill="#f3f5ec"/><g transform="translate(12 24)"><g fill="none" stroke-width="7" stroke-linecap="round" stroke-linejoin="round"><path d="M36 24C27 14 22 9 15 9C8 9 4 15 4 24C4 33 8 39 15 39C22 39 27 34 36 24C45 14 50 9 57 9C64 9 68 15 68 24C68 33 64 39 57 39C50 39 45 34 36 24Z" stroke="#242a20"/><path d="M26.736 14.4C29.44 16.8 32.4 20 36 24C39.6 28 42.56 31.2 45.264 33.6M26.736 33.6C29.44 31.2 32.4 28 36 24C39.6 20 42.56 16.8 45.264 14.4" stroke="#789f36" stroke-linecap="butt"/></g></g></svg>
